<mxfile host="app.diagrams.net" agent="Mozilla/5.0 (Windows NT 10.0; Win64; x64) AppleWebKit/537.36 (KHTML, like Gecko) Chrome/132.0.0.0 Safari/537.36" version="26.0.7">
  <diagram name="Página-1" id="ZRb9OuD0EN39uoJmoB1J">
    <mxGraphModel grid="1" page="1" gridSize="10" guides="1" tooltips="1" connect="1" arrows="1" fold="1" pageScale="1" pageWidth="827" pageHeight="1169" math="0" shadow="0">
      <root>
        <mxCell id="0" />
        <mxCell id="1" parent="0" />
        <mxCell id="NYFnm-BZBp7lSmvi567k-1" value="N" style="text;html=1;align=center;verticalAlign=middle;whiteSpace=wrap;rounded=0;fontStyle=1" vertex="1" parent="1">
          <mxGeometry x="100" y="201" width="60" height="30" as="geometry" />
        </mxCell>
        <mxCell id="NYFnm-BZBp7lSmvi567k-13" style="edgeStyle=orthogonalEdgeStyle;rounded=0;orthogonalLoop=1;jettySize=auto;html=1;exitX=0;exitY=0.5;exitDx=0;exitDy=0;entryX=1;entryY=0.5;entryDx=0;entryDy=0;endArrow=none;endFill=0;" edge="1" parent="1" source="NYFnm-BZBp7lSmvi567k-3" target="NYFnm-BZBp7lSmvi567k-11">
          <mxGeometry relative="1" as="geometry" />
        </mxCell>
        <mxCell id="NYFnm-BZBp7lSmvi567k-17" style="edgeStyle=orthogonalEdgeStyle;rounded=0;orthogonalLoop=1;jettySize=auto;html=1;exitX=0.5;exitY=1;exitDx=0;exitDy=0;entryX=0.5;entryY=0;entryDx=0;entryDy=0;endArrow=none;endFill=0;" edge="1" parent="1" source="NYFnm-BZBp7lSmvi567k-3" target="NYFnm-BZBp7lSmvi567k-16">
          <mxGeometry relative="1" as="geometry" />
        </mxCell>
        <mxCell id="NYFnm-BZBp7lSmvi567k-3" value="&lt;b&gt;Horário de Treino&lt;/b&gt;" style="whiteSpace=wrap;html=1;align=center;" vertex="1" parent="1">
          <mxGeometry x="360" y="211" width="100" height="40" as="geometry" />
        </mxCell>
        <mxCell id="NYFnm-BZBp7lSmvi567k-29" style="edgeStyle=orthogonalEdgeStyle;rounded=0;orthogonalLoop=1;jettySize=auto;html=1;exitX=0.5;exitY=0;exitDx=0;exitDy=0;endArrow=none;endFill=0;entryX=0.5;entryY=1;entryDx=0;entryDy=0;" edge="1" parent="1" source="NYFnm-BZBp7lSmvi567k-4" target="NYFnm-BZBp7lSmvi567k-30">
          <mxGeometry relative="1" as="geometry">
            <mxPoint x="717.5" y="170" as="targetPoint" />
          </mxGeometry>
        </mxCell>
        <mxCell id="NYFnm-BZBp7lSmvi567k-34" style="edgeStyle=orthogonalEdgeStyle;rounded=0;orthogonalLoop=1;jettySize=auto;html=1;exitX=0.5;exitY=1;exitDx=0;exitDy=0;entryX=0.5;entryY=0;entryDx=0;entryDy=0;endArrow=none;endFill=0;" edge="1" parent="1" source="NYFnm-BZBp7lSmvi567k-4" target="NYFnm-BZBp7lSmvi567k-33">
          <mxGeometry relative="1" as="geometry" />
        </mxCell>
        <mxCell id="NYFnm-BZBp7lSmvi567k-4" value="&lt;b&gt;FIcha de Treino&lt;/b&gt;" style="whiteSpace=wrap;html=1;align=center;" vertex="1" parent="1">
          <mxGeometry x="707.5" y="210" width="100" height="40" as="geometry" />
        </mxCell>
        <mxCell id="NYFnm-BZBp7lSmvi567k-5" value="&lt;b&gt;Relatório de Treino&lt;/b&gt;" style="whiteSpace=wrap;html=1;align=center;" vertex="1" parent="1">
          <mxGeometry x="990" y="421" width="100" height="40" as="geometry" />
        </mxCell>
        <mxCell id="NYFnm-BZBp7lSmvi567k-40" style="edgeStyle=orthogonalEdgeStyle;rounded=0;orthogonalLoop=1;jettySize=auto;html=1;exitX=1;exitY=0.5;exitDx=0;exitDy=0;entryX=0;entryY=0.5;entryDx=0;entryDy=0;endArrow=none;endFill=0;" edge="1" parent="1" source="NYFnm-BZBp7lSmvi567k-6" target="NYFnm-BZBp7lSmvi567k-39">
          <mxGeometry relative="1" as="geometry" />
        </mxCell>
        <mxCell id="ezOCGt0lJC-j39eO4orP-1" style="edgeStyle=orthogonalEdgeStyle;rounded=0;orthogonalLoop=1;jettySize=auto;html=1;exitX=0.25;exitY=0;exitDx=0;exitDy=0;entryX=1;entryY=0.5;entryDx=0;entryDy=0;endArrow=none;endFill=0;" edge="1" parent="1" source="NYFnm-BZBp7lSmvi567k-6" target="NYFnm-BZBp7lSmvi567k-3">
          <mxGeometry relative="1" as="geometry">
            <Array as="points">
              <mxPoint x="705" y="320" />
              <mxPoint x="580" y="320" />
              <mxPoint x="580" y="231" />
            </Array>
          </mxGeometry>
        </mxCell>
        <mxCell id="EVcos1JdtyYTMpsyS_CF-3" style="edgeStyle=orthogonalEdgeStyle;rounded=0;orthogonalLoop=1;jettySize=auto;html=1;exitX=0.5;exitY=1;exitDx=0;exitDy=0;entryX=0.5;entryY=0;entryDx=0;entryDy=0;endArrow=none;endFill=0;" edge="1" parent="1" source="NYFnm-BZBp7lSmvi567k-6">
          <mxGeometry relative="1" as="geometry">
            <mxPoint x="730" y="530" as="targetPoint" />
          </mxGeometry>
        </mxCell>
        <mxCell id="NYFnm-BZBp7lSmvi567k-6" value="&lt;b&gt;Perfil&lt;/b&gt;" style="whiteSpace=wrap;html=1;align=center;" vertex="1" parent="1">
          <mxGeometry x="680" y="421" width="100" height="40" as="geometry" />
        </mxCell>
        <mxCell id="NYFnm-BZBp7lSmvi567k-12" style="edgeStyle=orthogonalEdgeStyle;rounded=0;orthogonalLoop=1;jettySize=auto;html=1;exitX=1;exitY=0.5;exitDx=0;exitDy=0;entryX=0;entryY=0.5;entryDx=0;entryDy=0;endArrow=none;endFill=0;" edge="1" parent="1" source="NYFnm-BZBp7lSmvi567k-7" target="NYFnm-BZBp7lSmvi567k-11">
          <mxGeometry relative="1" as="geometry" />
        </mxCell>
        <mxCell id="NYFnm-BZBp7lSmvi567k-7" value="Dia" style="whiteSpace=wrap;html=1;align=center;fontStyle=1;" vertex="1" parent="1">
          <mxGeometry y="211" width="100" height="40" as="geometry" />
        </mxCell>
        <mxCell id="NYFnm-BZBp7lSmvi567k-28" style="edgeStyle=orthogonalEdgeStyle;rounded=0;orthogonalLoop=1;jettySize=auto;html=1;exitX=0.5;exitY=1;exitDx=0;exitDy=0;entryX=0.5;entryY=0;entryDx=0;entryDy=0;endArrow=none;endFill=0;" edge="1" parent="1" source="NYFnm-BZBp7lSmvi567k-8" target="NYFnm-BZBp7lSmvi567k-30">
          <mxGeometry relative="1" as="geometry">
            <mxPoint x="757.5" y="110" as="targetPoint" />
          </mxGeometry>
        </mxCell>
        <mxCell id="NYFnm-BZBp7lSmvi567k-8" value="&lt;b&gt;Exercício&lt;/b&gt;" style="whiteSpace=wrap;html=1;align=center;" vertex="1" parent="1">
          <mxGeometry x="707.5" width="100" height="40" as="geometry" />
        </mxCell>
        <mxCell id="NYFnm-BZBp7lSmvi567k-18" style="edgeStyle=orthogonalEdgeStyle;rounded=0;orthogonalLoop=1;jettySize=auto;html=1;entryX=0.5;entryY=1;entryDx=0;entryDy=0;endArrow=none;endFill=0;" edge="1" parent="1" source="NYFnm-BZBp7lSmvi567k-9" target="NYFnm-BZBp7lSmvi567k-16">
          <mxGeometry relative="1" as="geometry" />
        </mxCell>
        <mxCell id="NYFnm-BZBp7lSmvi567k-22" style="edgeStyle=orthogonalEdgeStyle;rounded=0;orthogonalLoop=1;jettySize=auto;html=1;exitX=1;exitY=0.5;exitDx=0;exitDy=0;entryX=0;entryY=0.5;entryDx=0;entryDy=0;endArrow=none;endFill=0;" edge="1" parent="1" source="NYFnm-BZBp7lSmvi567k-9" target="NYFnm-BZBp7lSmvi567k-21">
          <mxGeometry relative="1" as="geometry" />
        </mxCell>
        <mxCell id="NYFnm-BZBp7lSmvi567k-9" value="&lt;b&gt;Agendamento&lt;/b&gt;" style="whiteSpace=wrap;html=1;align=center;" vertex="1" parent="1">
          <mxGeometry x="360" y="421" width="100" height="40" as="geometry" />
        </mxCell>
        <mxCell id="NYFnm-BZBp7lSmvi567k-11" value="dia_horario" style="shape=associativeEntity;whiteSpace=wrap;html=1;align=center;fontStyle=1" vertex="1" parent="1">
          <mxGeometry x="190" y="211" width="100" height="40" as="geometry" />
        </mxCell>
        <mxCell id="NYFnm-BZBp7lSmvi567k-15" value="N" style="text;html=1;align=center;verticalAlign=middle;whiteSpace=wrap;rounded=0;fontStyle=1" vertex="1" parent="1">
          <mxGeometry x="300" y="201" width="60" height="30" as="geometry" />
        </mxCell>
        <mxCell id="NYFnm-BZBp7lSmvi567k-16" value="FAZ / TEM" style="shape=rhombus;perimeter=rhombusPerimeter;whiteSpace=wrap;html=1;align=center;fontStyle=1" vertex="1" parent="1">
          <mxGeometry x="360" y="311" width="100" height="50" as="geometry" />
        </mxCell>
        <mxCell id="NYFnm-BZBp7lSmvi567k-19" value="1" style="text;html=1;align=center;verticalAlign=middle;whiteSpace=wrap;rounded=0;fontStyle=1" vertex="1" parent="1">
          <mxGeometry x="400" y="251" width="60" height="30" as="geometry" />
        </mxCell>
        <mxCell id="NYFnm-BZBp7lSmvi567k-20" value="N" style="text;html=1;align=center;verticalAlign=middle;whiteSpace=wrap;rounded=0;fontStyle=1" vertex="1" parent="1">
          <mxGeometry x="400" y="391" width="60" height="30" as="geometry" />
        </mxCell>
        <mxCell id="NYFnm-BZBp7lSmvi567k-23" style="edgeStyle=orthogonalEdgeStyle;rounded=0;orthogonalLoop=1;jettySize=auto;html=1;exitX=1;exitY=0.5;exitDx=0;exitDy=0;entryX=0;entryY=0.5;entryDx=0;entryDy=0;endArrow=none;endFill=0;" edge="1" parent="1" source="NYFnm-BZBp7lSmvi567k-21" target="NYFnm-BZBp7lSmvi567k-6">
          <mxGeometry relative="1" as="geometry" />
        </mxCell>
        <mxCell id="NYFnm-BZBp7lSmvi567k-21" value="TEM" style="shape=rhombus;perimeter=rhombusPerimeter;whiteSpace=wrap;html=1;align=center;fontStyle=1" vertex="1" parent="1">
          <mxGeometry x="540" y="421" width="60" height="40" as="geometry" />
        </mxCell>
        <mxCell id="NYFnm-BZBp7lSmvi567k-24" value="1" style="text;html=1;align=center;verticalAlign=middle;whiteSpace=wrap;rounded=0;fontStyle=1" vertex="1" parent="1">
          <mxGeometry x="620" y="411" width="60" height="30" as="geometry" />
        </mxCell>
        <mxCell id="NYFnm-BZBp7lSmvi567k-25" value="1" style="text;html=1;align=center;verticalAlign=middle;whiteSpace=wrap;rounded=0;fontStyle=1" vertex="1" parent="1">
          <mxGeometry x="740" y="391" width="60" height="30" as="geometry" />
        </mxCell>
        <mxCell id="NYFnm-BZBp7lSmvi567k-30" value="ficha_exercicios" style="shape=associativeEntity;whiteSpace=wrap;html=1;align=center;fontStyle=1" vertex="1" parent="1">
          <mxGeometry x="700" y="100" width="115" height="50" as="geometry" />
        </mxCell>
        <mxCell id="NYFnm-BZBp7lSmvi567k-31" value="0,N" style="text;html=1;align=center;verticalAlign=middle;whiteSpace=wrap;rounded=0;fontStyle=1" vertex="1" parent="1">
          <mxGeometry x="757.5" y="150" width="60" height="30" as="geometry" />
        </mxCell>
        <mxCell id="NYFnm-BZBp7lSmvi567k-32" value="0,N" style="text;html=1;align=center;verticalAlign=middle;whiteSpace=wrap;rounded=0;fontStyle=1" vertex="1" parent="1">
          <mxGeometry x="757.5" y="70" width="60" height="30" as="geometry" />
        </mxCell>
        <mxCell id="NYFnm-BZBp7lSmvi567k-35" style="edgeStyle=orthogonalEdgeStyle;rounded=0;orthogonalLoop=1;jettySize=auto;html=1;exitX=0.5;exitY=1;exitDx=0;exitDy=0;entryX=0.5;entryY=0;entryDx=0;entryDy=0;endArrow=none;endFill=0;" edge="1" parent="1" source="NYFnm-BZBp7lSmvi567k-33">
          <mxGeometry relative="1" as="geometry">
            <mxPoint x="757.5" y="420" as="targetPoint" />
          </mxGeometry>
        </mxCell>
        <mxCell id="NYFnm-BZBp7lSmvi567k-33" value="&lt;b&gt;TEM&lt;/b&gt;" style="shape=rhombus;perimeter=rhombusPerimeter;whiteSpace=wrap;html=1;align=center;fontStyle=0" vertex="1" parent="1">
          <mxGeometry x="727.5" y="310" width="60" height="40" as="geometry" />
        </mxCell>
        <mxCell id="NYFnm-BZBp7lSmvi567k-37" value="0,N" style="text;html=1;align=center;verticalAlign=middle;whiteSpace=wrap;rounded=0;fontStyle=1" vertex="1" parent="1">
          <mxGeometry x="757.5" y="250" width="60" height="30" as="geometry" />
        </mxCell>
        <mxCell id="NYFnm-BZBp7lSmvi567k-38" value="N" style="text;html=1;align=center;verticalAlign=middle;whiteSpace=wrap;rounded=0;fontStyle=1" vertex="1" parent="1">
          <mxGeometry x="450" y="411" width="60" height="30" as="geometry" />
        </mxCell>
        <mxCell id="NYFnm-BZBp7lSmvi567k-41" style="edgeStyle=orthogonalEdgeStyle;rounded=0;orthogonalLoop=1;jettySize=auto;html=1;exitX=1;exitY=0.5;exitDx=0;exitDy=0;entryX=0;entryY=0.5;entryDx=0;entryDy=0;endArrow=none;endFill=0;" edge="1" parent="1" source="NYFnm-BZBp7lSmvi567k-39" target="NYFnm-BZBp7lSmvi567k-5">
          <mxGeometry relative="1" as="geometry" />
        </mxCell>
        <mxCell id="NYFnm-BZBp7lSmvi567k-39" value="TEM" style="shape=rhombus;perimeter=rhombusPerimeter;whiteSpace=wrap;html=1;align=center;fontStyle=1" vertex="1" parent="1">
          <mxGeometry x="860" y="421" width="60" height="40" as="geometry" />
        </mxCell>
        <mxCell id="NYFnm-BZBp7lSmvi567k-42" value="0,N" style="text;html=1;align=center;verticalAlign=middle;whiteSpace=wrap;rounded=0;fontStyle=1" vertex="1" parent="1">
          <mxGeometry x="930" y="411" width="60" height="30" as="geometry" />
        </mxCell>
        <mxCell id="NYFnm-BZBp7lSmvi567k-43" value="1" style="text;html=1;align=center;verticalAlign=middle;whiteSpace=wrap;rounded=0;fontStyle=1" vertex="1" parent="1">
          <mxGeometry x="780" y="411" width="60" height="30" as="geometry" />
        </mxCell>
        <mxCell id="ezOCGt0lJC-j39eO4orP-2" value="1" style="text;html=1;align=center;verticalAlign=middle;whiteSpace=wrap;rounded=0;fontStyle=1" vertex="1" parent="1">
          <mxGeometry x="660" y="391" width="60" height="30" as="geometry" />
        </mxCell>
        <mxCell id="ezOCGt0lJC-j39eO4orP-3" value="N" style="text;html=1;align=center;verticalAlign=middle;whiteSpace=wrap;rounded=0;fontStyle=1" vertex="1" parent="1">
          <mxGeometry x="460" y="201" width="60" height="30" as="geometry" />
        </mxCell>
        <mxCell id="EVcos1JdtyYTMpsyS_CF-1" value="Papel" style="whiteSpace=wrap;html=1;align=center;fontStyle=1;" vertex="1" parent="1">
          <mxGeometry x="680" y="620" width="100" height="40" as="geometry" />
        </mxCell>
        <mxCell id="EVcos1JdtyYTMpsyS_CF-4" style="edgeStyle=orthogonalEdgeStyle;rounded=0;orthogonalLoop=1;jettySize=auto;html=1;exitX=0.5;exitY=1;exitDx=0;exitDy=0;entryX=0.5;entryY=0;entryDx=0;entryDy=0;endArrow=none;endFill=0;" edge="1" parent="1" target="EVcos1JdtyYTMpsyS_CF-1">
          <mxGeometry relative="1" as="geometry">
            <mxPoint x="730" y="570" as="sourcePoint" />
          </mxGeometry>
        </mxCell>
        <mxCell id="EVcos1JdtyYTMpsyS_CF-5" value="perfil_papel" style="shape=associativeEntity;whiteSpace=wrap;html=1;align=center;fontStyle=1" vertex="1" parent="1">
          <mxGeometry x="672.5" y="520" width="115" height="50" as="geometry" />
        </mxCell>
        <mxCell id="EVcos1JdtyYTMpsyS_CF-6" value="1,N" style="text;html=1;align=center;verticalAlign=middle;whiteSpace=wrap;rounded=0;fontStyle=1" vertex="1" parent="1">
          <mxGeometry x="727.5" y="570" width="60" height="30" as="geometry" />
        </mxCell>
        <mxCell id="EVcos1JdtyYTMpsyS_CF-7" value="0,N" style="text;html=1;align=center;verticalAlign=middle;whiteSpace=wrap;rounded=0;fontStyle=1" vertex="1" parent="1">
          <mxGeometry x="727.5" y="490" width="60" height="30" as="geometry" />
        </mxCell>
        <mxCell id="4zSsw7mKpJjSUh95qYIt-1" value="Dia" style="whiteSpace=wrap;html=1;align=center;fontStyle=1;" vertex="1" parent="1">
          <mxGeometry x="-600" y="-400" width="100" height="40" as="geometry" />
        </mxCell>
        <mxCell id="4zSsw7mKpJjSUh95qYIt-2" value="&lt;span style=&quot;border-bottom: 1px dotted&quot;&gt;id&lt;/span&gt;" style="ellipse;whiteSpace=wrap;html=1;align=center;" vertex="1" parent="1">
          <mxGeometry x="-600" y="-350" width="100" height="40" as="geometry" />
        </mxCell>
        <mxCell id="4zSsw7mKpJjSUh95qYIt-3" value="name" style="ellipse;whiteSpace=wrap;html=1;align=center;" vertex="1" parent="1">
          <mxGeometry x="-600" y="-300" width="100" height="40" as="geometry" />
        </mxCell>
        <mxCell id="4zSsw7mKpJjSUh95qYIt-4" value="active" style="ellipse;whiteSpace=wrap;html=1;align=center;" vertex="1" parent="1">
          <mxGeometry x="-600" y="-250" width="100" height="40" as="geometry" />
        </mxCell>
        <mxCell id="4zSsw7mKpJjSUh95qYIt-5" value="&lt;b&gt;Horário de Treino&lt;/b&gt;" style="whiteSpace=wrap;html=1;align=center;" vertex="1" parent="1">
          <mxGeometry x="-440" y="-400" width="100" height="40" as="geometry" />
        </mxCell>
        <mxCell id="4zSsw7mKpJjSUh95qYIt-6" value="id" style="ellipse;whiteSpace=wrap;html=1;align=center;" vertex="1" parent="1">
          <mxGeometry x="-440" y="-350" width="100" height="40" as="geometry" />
        </mxCell>
        <mxCell id="4zSsw7mKpJjSUh95qYIt-7" value="start_time" style="ellipse;whiteSpace=wrap;html=1;align=center;" vertex="1" parent="1">
          <mxGeometry x="-440" y="-300" width="100" height="40" as="geometry" />
        </mxCell>
        <mxCell id="4zSsw7mKpJjSUh95qYIt-8" value="end_time" style="ellipse;whiteSpace=wrap;html=1;align=center;" vertex="1" parent="1">
          <mxGeometry x="-440" y="-250" width="100" height="40" as="geometry" />
        </mxCell>
        <mxCell id="4zSsw7mKpJjSUh95qYIt-9" value="studentslimit" style="ellipse;whiteSpace=wrap;html=1;align=center;" vertex="1" parent="1">
          <mxGeometry x="-440" y="-200" width="100" height="40" as="geometry" />
        </mxCell>
        <mxCell id="4zSsw7mKpJjSUh95qYIt-10" value="active" style="ellipse;whiteSpace=wrap;html=1;align=center;" vertex="1" parent="1">
          <mxGeometry x="-440" y="-150" width="100" height="40" as="geometry" />
        </mxCell>
        <mxCell id="4zSsw7mKpJjSUh95qYIt-11" value="&lt;b&gt;Agendamento&lt;/b&gt;" style="whiteSpace=wrap;html=1;align=center;" vertex="1" parent="1">
          <mxGeometry x="-270" y="-400" width="100" height="40" as="geometry" />
        </mxCell>
        <mxCell id="4zSsw7mKpJjSUh95qYIt-12" value="id" style="ellipse;whiteSpace=wrap;html=1;align=center;" vertex="1" parent="1">
          <mxGeometry x="-270" y="-350" width="100" height="40" as="geometry" />
        </mxCell>
        <mxCell id="4zSsw7mKpJjSUh95qYIt-13" value="created_at" style="ellipse;whiteSpace=wrap;html=1;align=center;" vertex="1" parent="1">
          <mxGeometry x="-270" y="-300" width="100" height="40" as="geometry" />
        </mxCell>
        <mxCell id="4zSsw7mKpJjSUh95qYIt-14" value="update_at" style="ellipse;whiteSpace=wrap;html=1;align=center;" vertex="1" parent="1">
          <mxGeometry x="-270" y="-250" width="100" height="40" as="geometry" />
        </mxCell>
        <mxCell id="4zSsw7mKpJjSUh95qYIt-16" value="&lt;b&gt;Perfil&lt;/b&gt;" style="whiteSpace=wrap;html=1;align=center;" vertex="1" parent="1">
          <mxGeometry x="-96" y="-400" width="100" height="40" as="geometry" />
        </mxCell>
        <mxCell id="4zSsw7mKpJjSUh95qYIt-17" value="id" style="ellipse;whiteSpace=wrap;html=1;align=center;" vertex="1" parent="1">
          <mxGeometry x="-96.5" y="-350" width="100" height="40" as="geometry" />
        </mxCell>
        <mxCell id="4zSsw7mKpJjSUh95qYIt-18" value="username" style="ellipse;whiteSpace=wrap;html=1;align=center;" vertex="1" parent="1">
          <mxGeometry x="-96" y="-300" width="100" height="40" as="geometry" />
        </mxCell>
        <mxCell id="4zSsw7mKpJjSUh95qYIt-19" value="email" style="ellipse;whiteSpace=wrap;html=1;align=center;" vertex="1" parent="1">
          <mxGeometry x="-96" y="-250" width="100" height="40" as="geometry" />
        </mxCell>
        <mxCell id="4zSsw7mKpJjSUh95qYIt-20" value="firstName" style="ellipse;whiteSpace=wrap;html=1;align=center;" vertex="1" parent="1">
          <mxGeometry x="-96" y="-200" width="100" height="40" as="geometry" />
        </mxCell>
        <mxCell id="4zSsw7mKpJjSUh95qYIt-22" value="lastName" style="ellipse;whiteSpace=wrap;html=1;align=center;" vertex="1" parent="1">
          <mxGeometry x="-96" y="-150" width="100" height="40" as="geometry" />
        </mxCell>
        <mxCell id="4zSsw7mKpJjSUh95qYIt-23" value="keycloakId" style="ellipse;whiteSpace=wrap;html=1;align=center;" vertex="1" parent="1">
          <mxGeometry x="-96" y="-100" width="100" height="40" as="geometry" />
        </mxCell>
        <mxCell id="4zSsw7mKpJjSUh95qYIt-24" value="Papel" style="whiteSpace=wrap;html=1;align=center;fontStyle=1;" vertex="1" parent="1">
          <mxGeometry x="80" y="-400" width="100" height="40" as="geometry" />
        </mxCell>
        <mxCell id="4zSsw7mKpJjSUh95qYIt-25" value="id" style="ellipse;whiteSpace=wrap;html=1;align=center;" vertex="1" parent="1">
          <mxGeometry x="80" y="-350" width="100" height="40" as="geometry" />
        </mxCell>
        <mxCell id="4zSsw7mKpJjSUh95qYIt-26" value="name" style="ellipse;whiteSpace=wrap;html=1;align=center;" vertex="1" parent="1">
          <mxGeometry x="80" y="-300" width="100" height="40" as="geometry" />
        </mxCell>
        <mxCell id="4zSsw7mKpJjSUh95qYIt-27" value="&lt;b&gt;Relatório de treino&lt;/b&gt;" style="whiteSpace=wrap;html=1;align=center;" vertex="1" parent="1">
          <mxGeometry x="230" y="-400" width="100" height="40" as="geometry" />
        </mxCell>
        <mxCell id="4zSsw7mKpJjSUh95qYIt-28" value="id" style="ellipse;whiteSpace=wrap;html=1;align=center;" vertex="1" parent="1">
          <mxGeometry x="230" y="-350" width="100" height="40" as="geometry" />
        </mxCell>
        <mxCell id="4zSsw7mKpJjSUh95qYIt-29" value="weight" style="ellipse;whiteSpace=wrap;html=1;align=center;" vertex="1" parent="1">
          <mxGeometry x="230" y="-300" width="100" height="40" as="geometry" />
        </mxCell>
        <mxCell id="4zSsw7mKpJjSUh95qYIt-30" value="height" style="ellipse;whiteSpace=wrap;html=1;align=center;" vertex="1" parent="1">
          <mxGeometry x="230" y="-250" width="100" height="40" as="geometry" />
        </mxCell>
        <mxCell id="4zSsw7mKpJjSUh95qYIt-31" value="description" style="ellipse;whiteSpace=wrap;html=1;align=center;" vertex="1" parent="1">
          <mxGeometry x="230" y="-200" width="100" height="40" as="geometry" />
        </mxCell>
        <mxCell id="4zSsw7mKpJjSUh95qYIt-33" value="observation" style="ellipse;whiteSpace=wrap;html=1;align=center;" vertex="1" parent="1">
          <mxGeometry x="230" y="-150" width="100" height="40" as="geometry" />
        </mxCell>
        <mxCell id="4zSsw7mKpJjSUh95qYIt-34" value="&lt;b&gt;FIcha de Treino&lt;/b&gt;" style="whiteSpace=wrap;html=1;align=center;" vertex="1" parent="1">
          <mxGeometry x="400" y="-400" width="100" height="40" as="geometry" />
        </mxCell>
        <mxCell id="4zSsw7mKpJjSUh95qYIt-35" value="id" style="ellipse;whiteSpace=wrap;html=1;align=center;" vertex="1" parent="1">
          <mxGeometry x="400" y="-350" width="100" height="40" as="geometry" />
        </mxCell>
        <mxCell id="4zSsw7mKpJjSUh95qYIt-36" value="description" style="ellipse;whiteSpace=wrap;html=1;align=center;" vertex="1" parent="1">
          <mxGeometry x="400" y="-300" width="100" height="40" as="geometry" />
        </mxCell>
        <mxCell id="4zSsw7mKpJjSUh95qYIt-38" value="&lt;b&gt;Exercício&lt;/b&gt;" style="whiteSpace=wrap;html=1;align=center;" vertex="1" parent="1">
          <mxGeometry x="560" y="-400" width="100" height="40" as="geometry" />
        </mxCell>
        <mxCell id="4zSsw7mKpJjSUh95qYIt-39" value="id" style="ellipse;whiteSpace=wrap;html=1;align=center;" vertex="1" parent="1">
          <mxGeometry x="560" y="-350" width="100" height="40" as="geometry" />
        </mxCell>
        <mxCell id="4zSsw7mKpJjSUh95qYIt-40" value="name" style="ellipse;whiteSpace=wrap;html=1;align=center;" vertex="1" parent="1">
          <mxGeometry x="560" y="-300" width="100" height="40" as="geometry" />
        </mxCell>
        <mxCell id="4zSsw7mKpJjSUh95qYIt-41" value="musclegroup" style="ellipse;whiteSpace=wrap;html=1;align=center;" vertex="1" parent="1">
          <mxGeometry x="560" y="-250" width="100" height="40" as="geometry" />
        </mxCell>
        <mxCell id="4zSsw7mKpJjSUh95qYIt-42" value="amount" style="ellipse;whiteSpace=wrap;html=1;align=center;" vertex="1" parent="1">
          <mxGeometry x="560" y="-200" width="100" height="40" as="geometry" />
        </mxCell>
        <mxCell id="4zSsw7mKpJjSUh95qYIt-43" value="repetition" style="ellipse;whiteSpace=wrap;html=1;align=center;" vertex="1" parent="1">
          <mxGeometry x="560" y="-150" width="100" height="40" as="geometry" />
        </mxCell>
      </root>
    </mxGraphModel>
  </diagram>
</mxfile>
